<?xml version="1.0" encoding="UTF-8" standalone="no"?>
<!-- Created with Inkscape (http://www.inkscape.org/) -->

<svg
   width="15.334206mm"
   height="14.07288mm"
   viewBox="0 0 15.334206 14.07288"
   version="1.1"
   id="svg26228"
   inkscape:version="1.1 (c68e22c387, 2021-05-23)"
   sodipodi:docname="food-icon.svg"
   xmlns:inkscape="http://www.inkscape.org/namespaces/inkscape"
   xmlns:sodipodi="http://sodipodi.sourceforge.net/DTD/sodipodi-0.dtd"
   xmlns="http://www.w3.org/2000/svg"
   xmlns:svg="http://www.w3.org/2000/svg">
  <sodipodi:namedview
     id="namedview26230"
     pagecolor="#ffffff"
     bordercolor="#666666"
     borderopacity="1.0"
     inkscape:pageshadow="2"
     inkscape:pageopacity="0.0"
     inkscape:pagecheckerboard="0"
     inkscape:document-units="mm"
     showgrid="false"
     fit-margin-top="0"
     fit-margin-left="0"
     fit-margin-right="0"
     fit-margin-bottom="0"
     inkscape:zoom="0.74118967"
     inkscape:cx="-114.00591"
     inkscape:cy="275.90778"
     inkscape:window-width="1920"
     inkscape:window-height="1017"
     inkscape:window-x="1272"
     inkscape:window-y="-8"
     inkscape:window-maximized="1"
     inkscape:current-layer="layer1" />
  <defs
     id="defs26225" />
  <g
     inkscape:label="Vrstva 1"
     inkscape:groupmode="layer"
     id="layer1"
     transform="translate(-21.961503,-75.780868)">
    <g
       id="g26126"
       transform="translate(-65.06336,54.313696)">
      <path
         style="fill:none;stroke:#ffffff;stroke-width:1;stroke-linecap:butt;stroke-linejoin:miter;stroke-miterlimit:4;stroke-dasharray:none;stroke-opacity:1"
         d="m 91.402112,32.385515 c 3.585437,1.460734 8.563686,-2.565041 8.854658,-5.976416 0.40363,-1.431 0.94656,-0.552161 0.94656,-0.552161 0,0 -0.0106,0.716077 0.37862,1.482947 1.92469,6.831022 -6.373518,9.654942 -10.285977,6.247315 -0.414055,-0.114573 -0.52051,-0.139321 -0.607019,-0.277645 -0.08651,-0.138323 0.03624,-0.678135 0.127923,-0.80528 0.164143,-0.20457 0.585235,-0.11876 0.585235,-0.11876 z"
         id="path8805"
         sodipodi:nodetypes="cccccscc" />
      <path
         style="fill:none;stroke:#ffffff;stroke-width:0.5;stroke-linecap:round;stroke-linejoin:miter;stroke-miterlimit:4;stroke-dasharray:none;stroke-opacity:1"
         d="m 95.155122,33.845328 c 1.299963,0.123806 2.900499,-0.312342 3.301984,-1.093224"
         id="path11628"
         sodipodi:nodetypes="cc" />
      <path
         style="fill:none;stroke:#ffffff;stroke-width:0.5;stroke-linecap:round;stroke-linejoin:miter;stroke-miterlimit:4;stroke-dasharray:none;stroke-opacity:1"
         d="m 92.769084,32.339287 c 0.07897,-0.970239 -0.348631,-2.104711 -1.05465,-2.320718"
         id="path11628-8"
         sodipodi:nodetypes="cc" />
      <path
         style="fill:none;stroke:#ffffff;stroke-width:0.407251;stroke-linecap:round;stroke-linejoin:miter;stroke-miterlimit:4;stroke-dasharray:none;stroke-opacity:1"
         d="m 96.579352,26.373494 c 0.380948,-0.675709 0.420113,-1.623687 -0.06049,-1.993862"
         id="path11628-8-7"
         sodipodi:nodetypes="cc" />
      <path
         style="fill:none;stroke:#ffffff;stroke-width:1;stroke-linecap:round;stroke-linejoin:round;stroke-miterlimit:4;stroke-dasharray:none;stroke-opacity:1"
         d="m 93.950344,32.328199 c 0,0 -0.143591,-3.803973 -2.989633,-3.815128 -2.846042,-0.01115 -3.435848,1.940565 -3.435848,3.212739 0,1.272174 0.178487,3.904374 5.064529,2.85577"
         id="path11971"
         sodipodi:nodetypes="czzc" />
      <path
         style="fill:none;stroke:#ffffff;stroke-width:0.75;stroke-linecap:butt;stroke-linejoin:miter;stroke-miterlimit:4;stroke-dasharray:none;stroke-opacity:1"
         d="m 90.904935,28.289963 c 0,0 -0.124363,-1.33157 0.669321,-1.360953 1.782093,-0.06597 0.445686,-0.6676 0.06693,-0.435057 -0.363866,0.223401 -0.501991,1.093224 -0.680477,0.412747 -0.178485,-0.680476 -0.847807,-1.818322 -1.712346,-1.249399 -0.864539,0.568923 1.143423,2.158561 1.734658,1.879677"
         id="path13640"
         sodipodi:nodetypes="csszzc" />
      <path
         style="fill:none;stroke:#ffffff;stroke-width:1;stroke-linecap:butt;stroke-linejoin:miter;stroke-miterlimit:4;stroke-dasharray:none;stroke-opacity:1"
         d="m 92.321665,28.646935 c 0,0 0.267726,-1.227088 1.494816,-1.918719 1.227087,-0.691633 0.04216,-2.94025 2.364933,-3.257363 2.320314,-0.316777 1.552859,2.836939 1.517127,3.346603 -0.03573,0.509664 0.410894,2.51801 1.427885,2.253383"
         id="path14853"
         sodipodi:nodetypes="csszc" />
      <path
         style="fill:none;stroke:#ffffff;stroke-width:0.75;stroke-linecap:round;stroke-linejoin:miter;stroke-miterlimit:4;stroke-dasharray:none;stroke-opacity:1"
         d="m 96.33759,23.493164 c 0,0 -0.133866,-1.561749 1.316331,-1.650992"
         id="path16348" />
    </g>
  </g>
</svg>
