<?xml version="1.0" encoding="UTF-8"?>
<!-- Created with Inkscape (http://www.inkscape.org/) -->
<svg width="15.334mm" height="14.073mm" version="1.1" viewBox="0 0 15.334 14.073" xmlns="http://www.w3.org/2000/svg">
 <g transform="translate(-21.962 -75.781)">
  <g transform="translate(-65.063 54.314)" fill="none" stroke="#fff">
   <path d="m91.402 32.386c3.5854 1.4607 8.5637-2.565 8.8547-5.9764 0.40363-1.431 0.94656-0.55216 0.94656-0.55216s-0.0106 0.71608 0.37862 1.4829c1.9247 6.831-6.3735 9.6549-10.286 6.2473-0.41406-0.11457-0.52051-0.13932-0.60702-0.27764-0.08651-0.13832 0.03624-0.67814 0.12792-0.80528 0.16414-0.20457 0.58524-0.11876 0.58524-0.11876z"/>
   <g stroke-linecap="round">
    <g>
     <path d="m95.155 33.845c1.3 0.12381 2.9005-0.31234 3.302-1.0932" stroke-width=".5"/>
     <path d="m92.769 32.339c0.07897-0.97024-0.34863-2.1047-1.0546-2.3207" stroke-width=".5"/>
     <path d="m96.579 26.373c0.38095-0.67571 0.42011-1.6237-0.06049-1.9939" stroke-width=".40725"/>
    </g>
    <path d="m93.95 32.328s-0.14359-3.804-2.9896-3.8151c-2.846-0.01115-3.4358 1.9406-3.4358 3.2127s0.17849 3.9044 5.0645 2.8558" stroke-linejoin="round"/>
   </g>
   <g>
    <path d="m90.905 28.29s-0.12436-1.3316 0.66932-1.361c1.7821-0.06597 0.44569-0.6676 0.06693-0.43506-0.36387 0.2234-0.50199 1.0932-0.68048 0.41275-0.17848-0.68048-0.84781-1.8183-1.7123-1.2494s1.1434 2.1586 1.7347 1.8797" stroke-width=".75"/>
    <path d="m92.322 28.647s0.26773-1.2271 1.4948-1.9187c1.2271-0.69163 0.04216-2.9402 2.3649-3.2574 2.3203-0.31678 1.5529 2.8369 1.5171 3.3466-0.03573 0.50966 0.41089 2.518 1.4279 2.2534"/>
    <path d="m96.338 23.493s-0.13387-1.5617 1.3163-1.651" stroke-linecap="round" stroke-width=".75"/>
   </g>
  </g>
 </g>
</svg>
