<?xml version="1.0" encoding="UTF-8"?>
<!-- Created with Inkscape (http://www.inkscape.org/) -->
<svg width="16mm" height="16mm" version="1.1" viewBox="0 0 16 16" xmlns="http://www.w3.org/2000/svg">
 <g transform="translate(-14.352 -22.52)">
  <g transform="translate(.051664 2.6903)" stroke="#fff">
   <path d="m27.398 23.37c1.8804 1.0009 3.2184 3.9641 1.6956 8.8462-2.2101 1.8492-2.5003-2.7665-6.5147-2.7665-4.0144 0-3.4805 2.2311-6.247 2.7665-3.2431-2.231-0.4031-8.0787 1.4279-8.8462 1.831-0.76751 3.4302 0.39044 5.1315 0.39044s2.6264-1.3913 4.5068-0.39044z" fill="none"/>
   <g>
    <g stroke-width=".865">
     <rect x="23.993" y="26.221" width=".87012" height=".87012" ry=".43506"/>
     <rect x="26.687" y="26.221" width=".87012" height=".87012" ry=".43506"/>
     <rect x="25.278" y="24.832" width=".87012" height=".87012" ry=".43506"/>
     <rect x="25.278" y="27.609" width=".87012" height=".87012" ry=".43506"/>
    </g>
    <rect transform="rotate(135)" x="3.965" y="-33.761" width="2.6637" height="2.6637" ry=".37574" fill="none" stroke-width=".74707"/>
    <rect x="18.198" y="25.689" width="1.9745" height="1.9745" ry=".37575" fill="none" stroke-width=".865"/>
   </g>
  </g>
 </g>
</svg>
